<mxfile host="app.diagrams.net" agent="Mozilla/5.0 (Windows NT 10.0; Win64; x64) AppleWebKit/537.36 (KHTML, like Gecko) Chrome/131.0.0.0 Safari/537.36 Edg/131.0.0.0" version="24.8.6">
  <diagram name="Page-1" id="phfm0n9-B-oaTw9efCOl">
    <mxGraphModel dx="1755" dy="727" grid="1" gridSize="10" guides="1" tooltips="1" connect="1" arrows="1" fold="1" page="1" pageScale="1" pageWidth="850" pageHeight="1100" math="0" shadow="0">
      <root>
        <mxCell id="0" />
        <mxCell id="1" parent="0" />
        <mxCell id="D6_uBKQ484-eJf6_RPs4-1" value="" style="ellipse;html=1;shape=startState;fillColor=#000000;strokeColor=#ff0000;" vertex="1" parent="1">
          <mxGeometry x="220" y="200" width="30" height="30" as="geometry" />
        </mxCell>
        <mxCell id="D6_uBKQ484-eJf6_RPs4-2" value="" style="edgeStyle=orthogonalEdgeStyle;html=1;verticalAlign=bottom;endArrow=open;endSize=8;strokeColor=#ff0000;rounded=0;" edge="1" parent="1" source="D6_uBKQ484-eJf6_RPs4-1">
          <mxGeometry relative="1" as="geometry">
            <mxPoint x="235" y="290" as="targetPoint" />
          </mxGeometry>
        </mxCell>
        <mxCell id="D6_uBKQ484-eJf6_RPs4-3" value="" style="edgeStyle=orthogonalEdgeStyle;rounded=0;orthogonalLoop=1;jettySize=auto;html=1;" edge="1" parent="1" source="D6_uBKQ484-eJf6_RPs4-5">
          <mxGeometry relative="1" as="geometry">
            <mxPoint x="235" y="410" as="targetPoint" />
          </mxGeometry>
        </mxCell>
        <mxCell id="D6_uBKQ484-eJf6_RPs4-13" value="Start Transaction Logging" style="edgeLabel;html=1;align=center;verticalAlign=middle;resizable=0;points=[];" vertex="1" connectable="0" parent="D6_uBKQ484-eJf6_RPs4-3">
          <mxGeometry x="-0.2706" y="-1" relative="1" as="geometry">
            <mxPoint as="offset" />
          </mxGeometry>
        </mxCell>
        <mxCell id="D6_uBKQ484-eJf6_RPs4-30" style="edgeStyle=orthogonalEdgeStyle;rounded=0;orthogonalLoop=1;jettySize=auto;html=1;exitX=0;exitY=0.25;exitDx=0;exitDy=0;entryX=0.5;entryY=0;entryDx=0;entryDy=0;" edge="1" parent="1" source="D6_uBKQ484-eJf6_RPs4-5" target="D6_uBKQ484-eJf6_RPs4-29">
          <mxGeometry relative="1" as="geometry" />
        </mxCell>
        <mxCell id="D6_uBKQ484-eJf6_RPs4-31" value="Stop Transaction Logging" style="edgeLabel;html=1;align=center;verticalAlign=middle;resizable=0;points=[];" vertex="1" connectable="0" parent="D6_uBKQ484-eJf6_RPs4-30">
          <mxGeometry x="0.2209" y="-2" relative="1" as="geometry">
            <mxPoint as="offset" />
          </mxGeometry>
        </mxCell>
        <mxCell id="D6_uBKQ484-eJf6_RPs4-5" value="Transaction Log Instance" style="rounded=1;whiteSpace=wrap;html=1;" vertex="1" parent="1">
          <mxGeometry x="175" y="290" width="120" height="60" as="geometry" />
        </mxCell>
        <mxCell id="D6_uBKQ484-eJf6_RPs4-15" value="" style="edgeStyle=orthogonalEdgeStyle;rounded=0;orthogonalLoop=1;jettySize=auto;html=1;exitX=0;exitY=0.5;exitDx=0;exitDy=0;" edge="1" parent="1" source="D6_uBKQ484-eJf6_RPs4-5" target="D6_uBKQ484-eJf6_RPs4-14">
          <mxGeometry relative="1" as="geometry">
            <Array as="points">
              <mxPoint x="70" y="320" />
              <mxPoint x="70" y="710" />
            </Array>
          </mxGeometry>
        </mxCell>
        <mxCell id="D6_uBKQ484-eJf6_RPs4-17" value="Log in Current Transaction" style="edgeLabel;html=1;align=center;verticalAlign=middle;resizable=0;points=[];" vertex="1" connectable="0" parent="D6_uBKQ484-eJf6_RPs4-15">
          <mxGeometry x="-0.2774" y="-3" relative="1" as="geometry">
            <mxPoint as="offset" />
          </mxGeometry>
        </mxCell>
        <mxCell id="D6_uBKQ484-eJf6_RPs4-11" value="Active Transactions&lt;div&gt;(add transaction)&lt;/div&gt;" style="rounded=1;whiteSpace=wrap;html=1;" vertex="1" parent="1">
          <mxGeometry x="175" y="540" width="120" height="60" as="geometry" />
        </mxCell>
        <mxCell id="D6_uBKQ484-eJf6_RPs4-22" style="edgeStyle=orthogonalEdgeStyle;rounded=0;orthogonalLoop=1;jettySize=auto;html=1;entryX=0.5;entryY=1;entryDx=0;entryDy=0;" edge="1" parent="1" source="D6_uBKQ484-eJf6_RPs4-14" target="D6_uBKQ484-eJf6_RPs4-21">
          <mxGeometry relative="1" as="geometry" />
        </mxCell>
        <mxCell id="D6_uBKQ484-eJf6_RPs4-14" value="Info/Warning/&lt;div&gt;Error/Debug&lt;/div&gt;" style="rounded=1;whiteSpace=wrap;html=1;" vertex="1" parent="1">
          <mxGeometry x="175" y="680" width="120" height="60" as="geometry" />
        </mxCell>
        <mxCell id="D6_uBKQ484-eJf6_RPs4-23" style="edgeStyle=orthogonalEdgeStyle;rounded=0;orthogonalLoop=1;jettySize=auto;html=1;entryX=1;entryY=0.5;entryDx=0;entryDy=0;" edge="1" parent="1" source="D6_uBKQ484-eJf6_RPs4-21" target="D6_uBKQ484-eJf6_RPs4-11">
          <mxGeometry relative="1" as="geometry" />
        </mxCell>
        <mxCell id="D6_uBKQ484-eJf6_RPs4-28" value="yes,&lt;div&gt;add log to&amp;nbsp;&lt;/div&gt;&lt;div&gt;transaction group&lt;/div&gt;" style="edgeLabel;html=1;align=center;verticalAlign=middle;resizable=0;points=[];" vertex="1" connectable="0" parent="D6_uBKQ484-eJf6_RPs4-23">
          <mxGeometry x="0.0361" y="1" relative="1" as="geometry">
            <mxPoint as="offset" />
          </mxGeometry>
        </mxCell>
        <mxCell id="D6_uBKQ484-eJf6_RPs4-25" style="edgeStyle=orthogonalEdgeStyle;rounded=0;orthogonalLoop=1;jettySize=auto;html=1;exitX=0.5;exitY=0;exitDx=0;exitDy=0;entryX=1;entryY=0.5;entryDx=0;entryDy=0;" edge="1" parent="1" source="D6_uBKQ484-eJf6_RPs4-21" target="D6_uBKQ484-eJf6_RPs4-5">
          <mxGeometry relative="1" as="geometry" />
        </mxCell>
        <mxCell id="D6_uBKQ484-eJf6_RPs4-26" value="no" style="edgeLabel;html=1;align=center;verticalAlign=middle;resizable=0;points=[];" vertex="1" connectable="0" parent="D6_uBKQ484-eJf6_RPs4-25">
          <mxGeometry x="-0.2798" y="-3" relative="1" as="geometry">
            <mxPoint x="-3" y="169" as="offset" />
          </mxGeometry>
        </mxCell>
        <mxCell id="D6_uBKQ484-eJf6_RPs4-21" value="Log Level&amp;nbsp;&lt;div&gt;Sattisfied?&lt;/div&gt;" style="rhombus;whiteSpace=wrap;html=1;" vertex="1" parent="1">
          <mxGeometry x="580" y="535" width="80" height="70" as="geometry" />
        </mxCell>
        <mxCell id="D6_uBKQ484-eJf6_RPs4-33" value="" style="edgeStyle=orthogonalEdgeStyle;rounded=0;orthogonalLoop=1;jettySize=auto;html=1;" edge="1" parent="1" source="D6_uBKQ484-eJf6_RPs4-29" target="D6_uBKQ484-eJf6_RPs4-32">
          <mxGeometry relative="1" as="geometry" />
        </mxCell>
        <mxCell id="D6_uBKQ484-eJf6_RPs4-34" value="Write Transaction Log" style="edgeLabel;html=1;align=center;verticalAlign=middle;resizable=0;points=[];" vertex="1" connectable="0" parent="D6_uBKQ484-eJf6_RPs4-33">
          <mxGeometry x="-0.3347" relative="1" as="geometry">
            <mxPoint as="offset" />
          </mxGeometry>
        </mxCell>
        <mxCell id="D6_uBKQ484-eJf6_RPs4-29" value="Active Transactions&lt;div&gt;(remove transaction)&lt;/div&gt;" style="rounded=1;whiteSpace=wrap;html=1;" vertex="1" parent="1">
          <mxGeometry x="-130" y="410" width="120" height="60" as="geometry" />
        </mxCell>
        <mxCell id="D6_uBKQ484-eJf6_RPs4-42" value="" style="edgeStyle=orthogonalEdgeStyle;rounded=0;orthogonalLoop=1;jettySize=auto;html=1;" edge="1" parent="1" source="D6_uBKQ484-eJf6_RPs4-32" target="D6_uBKQ484-eJf6_RPs4-41">
          <mxGeometry relative="1" as="geometry" />
        </mxCell>
        <mxCell id="D6_uBKQ484-eJf6_RPs4-32" value="Output" style="rounded=1;whiteSpace=wrap;html=1;" vertex="1" parent="1">
          <mxGeometry x="-130" y="520" width="120" height="60" as="geometry" />
        </mxCell>
        <mxCell id="D6_uBKQ484-eJf6_RPs4-36" value="" style="edgeStyle=orthogonalEdgeStyle;rounded=0;orthogonalLoop=1;jettySize=auto;html=1;" edge="1" parent="1" source="D6_uBKQ484-eJf6_RPs4-35" target="D6_uBKQ484-eJf6_RPs4-11">
          <mxGeometry relative="1" as="geometry" />
        </mxCell>
        <mxCell id="D6_uBKQ484-eJf6_RPs4-37" value="no" style="edgeLabel;html=1;align=center;verticalAlign=middle;resizable=0;points=[];" vertex="1" connectable="0" parent="D6_uBKQ484-eJf6_RPs4-36">
          <mxGeometry x="-0.5456" y="-2" relative="1" as="geometry">
            <mxPoint as="offset" />
          </mxGeometry>
        </mxCell>
        <mxCell id="D6_uBKQ484-eJf6_RPs4-39" value="" style="edgeStyle=orthogonalEdgeStyle;rounded=0;orthogonalLoop=1;jettySize=auto;html=1;" edge="1" parent="1" source="D6_uBKQ484-eJf6_RPs4-35" target="D6_uBKQ484-eJf6_RPs4-38">
          <mxGeometry relative="1" as="geometry" />
        </mxCell>
        <mxCell id="D6_uBKQ484-eJf6_RPs4-40" value="yes" style="edgeLabel;html=1;align=center;verticalAlign=middle;resizable=0;points=[];" vertex="1" connectable="0" parent="D6_uBKQ484-eJf6_RPs4-39">
          <mxGeometry x="-0.4685" y="1" relative="1" as="geometry">
            <mxPoint as="offset" />
          </mxGeometry>
        </mxCell>
        <mxCell id="D6_uBKQ484-eJf6_RPs4-35" value="Transaction is active?" style="rhombus;whiteSpace=wrap;html=1;" vertex="1" parent="1">
          <mxGeometry x="195" y="410" width="80" height="70" as="geometry" />
        </mxCell>
        <mxCell id="D6_uBKQ484-eJf6_RPs4-38" value="" style="ellipse;html=1;shape=endState;fillColor=#000000;strokeColor=#ff0000;" vertex="1" parent="1">
          <mxGeometry x="360" y="430" width="30" height="30" as="geometry" />
        </mxCell>
        <mxCell id="D6_uBKQ484-eJf6_RPs4-41" value="" style="ellipse;html=1;shape=endState;fillColor=#000000;strokeColor=#ff0000;" vertex="1" parent="1">
          <mxGeometry x="-85" y="650" width="30" height="30" as="geometry" />
        </mxCell>
      </root>
    </mxGraphModel>
  </diagram>
</mxfile>
